<svg xmlns="http://www.w3.org/2000/svg" xmlnsXlink="http://www.w3.org/1999/xlink" width="10rem"
height="10rem" viewBox="0 0 530.7 489.5" version="1.1">
<defs>
	<clipPath id="clip1">
		<path d="M 0 0 L 530.699219 0 L 530.699219 489.5 L 0 489.5 Z M 0 0 " />
	</clipPath>
</defs>
<g id="surface1">
	<g clip-path="url(#clip1)" clip-rule="nonzero">
		<path style=" stroke:none;fill-rule:evenodd;fill:rgb(100%,100%,100%);fill-opacity:1;"
			d="M 0.00390625 489.40625 L 530.792969 489.40625 L 530.792969 -0.0234375 L 0.00390625 -0.0234375 Z M 0.00390625 489.40625 " />
	</g>
	<path style=" stroke:none;fill-rule:evenodd;fill:rgb(10.594177%,9.812927%,9.423828%);fill-opacity:1;"
		d="M 166.390625 138.625 L 166.390625 133.539063 L 232.046875 133.539063 L 232.046875 138.625 L 225.046875 138.625 C 217.769531 138.625 212.167969 141.660156 208.25 147.773438 C 206.335938 150.617188 205.355469 157.152344 205.355469 167.464844 L 205.355469 242.644531 C 205.355469 261.261719 203.535156 275.683594 199.847656 285.902344 C 196.164063 296.167969 188.882813 304.988281 178.101563 312.3125 C 167.277344 319.640625 152.578125 323.328125 134.003906 323.328125 C 113.75 323.328125 98.398438 319.828125 87.945313 312.78125 C 77.445313 305.78125 70.027344 296.355469 65.640625 284.503906 C 62.746094 276.382813 61.253906 261.167969 61.253906 238.816406 L 61.253906 166.34375 C 61.253906 154.957031 59.714844 147.492188 56.539063 143.945313 C 53.414063 140.398438 48.328125 138.625 41.328125 138.625 L 34.328125 138.625 L 34.328125 133.539063 L 114.453125 133.539063 L 114.453125 138.625 L 107.359375 138.625 C 99.707031 138.625 94.199219 141.007813 90.933594 145.859375 C 88.644531 149.125 87.527344 155.984375 87.527344 166.34375 L 87.527344 247.167969 C 87.527344 254.355469 88.179688 262.617188 89.484375 271.902344 C 90.839844 281.1875 93.21875 288.46875 96.671875 293.648438 C 100.125 298.828125 105.117188 303.121094 111.652344 306.480469 C 118.183594 309.886719 126.164063 311.566406 135.636719 311.566406 C 147.769531 311.566406 158.597656 308.90625 168.164063 303.632813 C 177.730469 298.363281 184.308594 291.59375 187.808594 283.335938 C 191.308594 275.074219 193.082031 261.121094 193.082031 241.429688 L 193.082031 166.34375 C 193.082031 154.773438 191.777344 147.539063 189.257813 144.644531 C 185.664063 140.632813 180.390625 138.625 173.390625 138.625 Z M 166.390625 138.625 " />
	<path style=" stroke:none;fill-rule:evenodd;fill:rgb(95.701599%,67.381287%,15.281677%);fill-opacity:1;"
		d="M 376.511719 209.320313 L 345.464844 209.320313 L 341.195313 223.875 L 313.351563 223.875 L 346.492188 135.6875 L 376.203125 135.6875 L 409.363281 223.875 L 380.84375 223.875 Z M 370.800781 190.242188 L 361.050781 158.542969 L 351.359375 190.242188 Z M 418.4375 135.6875 L 458.929688 135.6875 C 466.894531 135.6875 473.34375 136.777344 478.269531 138.933594 C 483.179688 141.109375 487.242188 144.210938 490.445313 148.253906 C 493.648438 152.320313 495.96875 157.019531 497.425781 162.402344 C 498.863281 167.78125 499.582031 173.46875 499.582031 179.484375 C 499.582031 188.910156 498.515625 196.21875 496.359375 201.414063 C 494.222656 206.609375 491.246094 210.960938 487.429688 214.453125 C 483.628906 217.960938 479.542969 220.304688 475.171875 221.472656 C 469.195313 223.074219 463.773438 223.875 458.929688 223.875 L 418.4375 223.875 Z M 445.683594 155.667969 L 445.683594 203.835938 L 452.359375 203.835938 C 458.066406 203.835938 462.109375 203.21875 464.511719 201.949219 C 466.914063 200.695313 468.804688 198.476563 470.179688 195.335938 C 471.535156 192.195313 472.214844 187.082031 472.214844 180.019531 C 472.214844 170.675781 470.695313 164.289063 467.65625 160.839844 C 464.59375 157.390625 459.542969 155.667969 452.480469 155.667969 Z M 445.683594 155.667969 " />
	<path style=" stroke:none;fill-rule:evenodd;fill:rgb(10.594177%,9.812927%,9.423828%);fill-opacity:1;"
		d="M 227.058594 133.832031 L 251.625 133.832031 L 306.984375 201.746094 L 306.984375 149.535156 C 306.984375 143.972656 306.34375 140.484375 305.113281 139.117188 C 303.449219 137.25 300.851563 136.316406 297.296875 136.316406 L 294.152344 136.316406 L 294.152344 133.832031 L 325.671875 133.832031 L 325.671875 136.316406 L 322.457031 136.316406 C 318.628906 136.316406 315.917969 137.476563 314.320313 139.78125 C 313.339844 141.214844 312.863281 144.453125 312.863281 149.535156 L 312.863281 225.835938 L 310.445313 225.835938 L 250.757813 152.929688 L 250.757813 208.699219 C 250.757813 214.257813 251.351563 217.722656 252.558594 219.113281 C 254.246094 220.980469 256.867188 221.914063 260.375 221.914063 L 263.566406 221.914063 L 263.566406 224.378906 L 232.070313 224.378906 L 232.070313 221.914063 L 235.195313 221.914063 C 239.066406 221.914063 241.800781 220.753906 243.421875 218.429688 C 244.402344 217.015625 244.878906 213.757813 244.878906 208.699219 L 244.878906 145.726563 C 242.257813 142.652344 240.253906 140.625 238.90625 139.644531 C 237.539063 138.664063 235.558594 137.75 232.9375 136.910156 C 231.636719 136.519531 229.679688 136.316406 227.058594 136.316406 Z M 227.058594 133.832031 " />
	<path style=" stroke:none;fill-rule:evenodd;fill:rgb(94.139099%,48.631287%,0%);fill-opacity:1;"
		d="M 68.285156 98.582031 C 63.082031 98.582031 58.859375 103.183594 58.859375 108.855469 C 58.859375 114.527344 63.082031 119.128906 68.285156 119.128906 C 73.492188 119.128906 77.714844 114.527344 77.714844 108.855469 C 77.714844 103.183594 73.492188 98.582031 68.285156 98.582031 Z M 132.09375 57.304688 C 126.886719 57.304688 122.667969 61.90625 122.667969 67.578125 C 122.667969 73.25 126.886719 77.851563 132.09375 77.851563 C 137.296875 77.851563 141.519531 73.25 141.519531 67.578125 C 141.519531 61.90625 137.296875 57.304688 132.09375 57.304688 Z M 89.4375 69.4375 C 84.230469 69.4375 80.011719 74.039063 80.011719 79.710938 C 80.011719 85.382813 84.230469 89.984375 89.4375 89.984375 C 94.640625 89.984375 98.863281 85.382813 98.863281 79.710938 C 98.863281 74.039063 94.640625 69.4375 89.4375 69.4375 Z M 196.890625 100.207031 C 191.6875 100.207031 187.464844 104.804688 187.464844 110.480469 C 187.464844 116.152344 191.6875 120.75 196.890625 120.75 C 202.097656 120.75 206.320313 116.152344 206.320313 110.480469 C 206.320313 104.804688 202.097656 100.207031 196.890625 100.207031 Z M 172.328125 69.6875 C 167.121094 69.6875 162.902344 74.289063 162.902344 79.960938 C 162.902344 85.632813 167.121094 90.234375 172.328125 90.234375 C 177.53125 90.234375 181.753906 85.632813 181.753906 79.960938 C 181.753906 74.289063 177.53125 69.6875 172.328125 69.6875 Z M 172.328125 69.6875 " />
	<path style=" stroke:none;fill-rule:evenodd;fill:rgb(94.139099%,48.631287%,0%);fill-opacity:1;"
		d="M 466.402344 265.011719 C 471.605469 265.011719 475.828125 260.414063 475.828125 254.738281 C 475.828125 249.066406 471.605469 244.464844 466.402344 244.464844 C 461.195313 244.464844 456.976563 249.066406 456.976563 254.738281 C 456.976563 260.414063 461.195313 265.011719 466.402344 265.011719 Z M 402.59375 306.292969 C 407.800781 306.292969 412.023438 301.691406 412.023438 296.019531 C 412.023438 290.347656 407.800781 285.746094 402.59375 285.746094 C 397.390625 285.746094 393.167969 290.347656 393.167969 296.019531 C 393.167969 301.691406 397.390625 306.292969 402.59375 306.292969 Z M 445.25 294.160156 C 450.457031 294.160156 454.679688 289.558594 454.679688 283.886719 C 454.679688 278.214844 450.457031 273.613281 445.25 273.613281 C 440.046875 273.613281 435.824219 278.214844 435.824219 283.886719 C 435.824219 289.558594 440.046875 294.160156 445.25 294.160156 Z M 337.796875 263.390625 C 343 263.390625 347.222656 258.789063 347.222656 253.117188 C 347.222656 247.445313 343 242.84375 337.796875 242.84375 C 332.589844 242.84375 328.371094 247.445313 328.371094 253.117188 C 328.371094 258.789063 332.589844 263.390625 337.796875 263.390625 Z M 362.359375 293.90625 C 367.566406 293.90625 371.789063 289.308594 371.789063 283.632813 C 371.789063 277.960938 367.566406 273.363281 362.359375 273.363281 C 357.15625 273.363281 352.933594 277.960938 352.933594 283.632813 C 352.933594 289.308594 357.15625 293.90625 362.359375 293.90625 Z M 362.359375 293.90625 " />
	<path style=" stroke:none;fill-rule:evenodd;fill:rgb(0%,43.920898%,71.679688%);fill-opacity:1;"
		d="M 57.882813 338.722656 L 62.664063 338.722656 L 62.664063 359.570313 C 62.664063 363.191406 62.253906 366.070313 61.429688 368.203125 C 60.605469 370.335938 59.128906 372.070313 56.984375 373.402344 C 54.84375 374.746094 52.039063 375.410156 48.558594 375.410156 C 45.183594 375.410156 42.410156 374.832031 40.269531 373.664063 C 38.121094 372.503906 36.582031 370.816406 35.667969 368.605469 C 34.742188 366.398438 34.289063 363.390625 34.289063 359.570313 L 34.289063 338.722656 L 39.058594 338.722656 L 39.058594 359.542969 C 39.058594 362.675781 39.355469 364.988281 39.933594 366.464844 C 40.511719 367.953125 41.519531 369.09375 42.933594 369.902344 C 44.351563 370.707031 46.089844 371.109375 48.140625 371.109375 C 51.652344 371.109375 54.15625 370.3125 55.648438 368.714844 C 57.136719 367.128906 57.882813 364.070313 57.882813 359.542969 Z M 70.046875 374.796875 L 70.046875 348.667969 L 74.027344 348.667969 L 74.027344 352.378906 C 75.953125 349.507813 78.722656 348.070313 82.34375 348.070313 C 83.921875 348.070313 85.367188 348.355469 86.6875 348.917969 C 88.015625 349.488281 88.996094 350.230469 89.652344 351.152344 C 90.316406 352.066406 90.769531 353.160156 91.039063 354.421875 C 91.199219 355.242188 91.28125 356.679688 91.28125 358.730469 L 91.28125 374.796875 L 86.847656 374.796875 L 86.847656 358.898438 C 86.847656 357.101563 86.679688 355.746094 86.332031 354.847656 C 85.988281 353.957031 85.375 353.246094 84.503906 352.714844 C 83.621094 352.175781 82.597656 351.910156 81.410156 351.910156 C 79.523438 351.910156 77.902344 352.515625 76.523438 353.707031 C 75.152344 354.90625 74.472656 357.175781 74.472656 360.527344 L 74.472656 374.796875 Z M 98.09375 338.722656 L 102.527344 338.722656 L 102.527344 343.820313 L 98.09375 343.820313 Z M 98.09375 348.667969 L 102.527344 348.667969 L 102.527344 374.796875 L 98.09375 374.796875 Z M 116.53125 374.796875 L 106.585938 348.667969 L 111.265625 348.667969 L 116.875 364.316406 C 117.480469 366.003906 118.035156 367.757813 118.546875 369.582031 C 118.941406 368.203125 119.488281 366.550781 120.191406 364.609375 L 126.007813 348.667969 L 130.558594 348.667969 L 120.664063 374.796875 Z M 152.355469 366.382813 L 156.933594 366.945313 C 156.210938 369.625 154.875 371.699219 152.925781 373.175781 C 150.96875 374.648438 148.476563 375.386719 145.441406 375.386719 C 141.621094 375.386719 138.589844 374.210938 136.355469 371.859375 C 134.113281 369.507813 132.996094 366.207031 132.996094 361.953125 C 132.996094 357.554688 134.128906 354.144531 136.386719 351.714844 C 138.65625 349.289063 141.585938 348.070313 145.199219 348.070313 C 148.695313 348.070313 151.550781 349.261719 153.757813 351.640625 C 155.976563 354.015625 157.085938 357.367188 157.085938 361.675781 C 157.085938 361.945313 157.078125 362.339844 157.058594 362.863281 L 137.570313 362.863281 C 137.730469 365.734375 138.546875 367.933594 140.007813 369.457031 C 141.46875 370.984375 143.285156 371.75 145.46875 371.75 C 147.089844 371.75 148.476563 371.320313 149.625 370.464844 C 150.777344 369.617188 151.683594 368.253906 152.355469 366.382813 Z M 137.816406 359.214844 L 152.40625 359.214844 C 152.214844 357.023438 151.652344 355.371094 150.734375 354.277344 C 149.324219 352.574219 147.492188 351.714844 145.25 351.714844 C 143.21875 351.714844 141.503906 352.394531 140.117188 353.757813 C 138.730469 355.117188 137.96875 356.941406 137.816406 359.214844 Z M 162.453125 374.796875 L 162.453125 348.667969 L 166.433594 348.667969 L 166.433594 352.621094 C 167.449219 350.773438 168.390625 349.546875 169.257813 348.960938 C 170.113281 348.371094 171.0625 348.070313 172.09375 348.070313 C 173.589844 348.070313 175.101563 348.550781 176.648438 349.496094 L 175.121094 353.613281 C 174.042969 352.96875 172.960938 352.648438 171.878906 352.648438 C 170.902344 352.648438 170.039063 352.941406 169.265625 353.523438 C 168.492188 354.109375 167.945313 354.914063 167.617188 355.949219 C 167.121094 357.519531 166.878906 359.242188 166.878906 361.113281 L 166.878906 374.796875 Z M 177.511719 366.996094 L 181.890625 366.304688 C 182.132813 368.0625 182.820313 369.40625 183.949219 370.347656 C 185.066406 371.277344 186.636719 371.75 188.660156 371.75 C 190.691406 371.75 192.203125 371.328125 193.1875 370.507813 C 194.171875 369.675781 194.664063 368.699219 194.664063 367.589844 C 194.664063 366.582031 194.230469 365.800781 193.355469 365.222656 C 192.75 364.828125 191.238281 364.332031 188.828125 363.726563 C 185.585938 362.902344 183.324219 362.199219 182.074219 361.59375 C 180.824219 360.996094 179.863281 360.164063 179.21875 359.105469 C 178.570313 358.046875 178.242188 356.882813 178.242188 355.605469 C 178.242188 354.4375 178.511719 353.363281 179.050781 352.371094 C 179.578125 351.371094 180.308594 350.546875 181.226563 349.894531 C 181.914063 349.390625 182.855469 348.953125 184.039063 348.597656 C 185.234375 348.246094 186.507813 348.070313 187.871094 348.070313 C 189.917969 348.070313 191.71875 348.371094 193.269531 348.960938 C 194.824219 349.546875 195.96875 350.347656 196.707031 351.355469 C 197.445313 352.371094 197.949219 353.714844 198.226563 355.402344 L 193.902344 356 C 193.699219 354.65625 193.128906 353.605469 192.1875 352.851563 C 191.246094 352.09375 189.910156 351.714844 188.1875 351.714844 C 186.15625 351.714844 184.703125 352.050781 183.839844 352.722656 C 182.964844 353.394531 182.527344 354.183594 182.527344 355.082031 C 182.527344 355.664063 182.714844 356.175781 183.074219 356.636719 C 183.433594 357.117188 183.996094 357.503906 184.769531 357.824219 C 185.214844 357.980469 186.519531 358.359375 188.683594 358.949219 C 191.816406 359.789063 194.003906 360.46875 195.238281 361.003906 C 196.480469 361.535156 197.453125 362.316406 198.160156 363.332031 C 198.867188 364.347656 199.21875 365.609375 199.21875 367.121094 C 199.21875 368.597656 198.78125 369.984375 197.925781 371.296875 C 197.058594 372.597656 195.816406 373.605469 194.195313 374.320313 C 192.574219 375.035156 190.734375 375.386719 188.683594 375.386719 C 185.28125 375.386719 182.695313 374.679688 180.914063 373.269531 C 179.132813 371.859375 178 369.765625 177.511719 366.996094 Z M 204.5 338.722656 L 208.9375 338.722656 L 208.9375 343.820313 L 204.5 343.820313 Z M 204.5 348.667969 L 208.9375 348.667969 L 208.9375 374.796875 L 204.5 374.796875 Z M 232.632813 374.796875 L 232.632813 371.496094 C 230.976563 374.09375 228.542969 375.386719 225.324219 375.386719 C 223.242188 375.386719 221.328125 374.816406 219.578125 373.664063 C 217.832031 372.523438 216.480469 370.917969 215.511719 368.851563 C 214.554688 366.792969 214.078125 364.433594 214.078125 361.753906 C 214.078125 359.148438 214.515625 356.78125 215.378906 354.65625 C 216.253906 352.53125 217.554688 350.902344 219.292969 349.773438 C 221.03125 348.640625 222.980469 348.070313 225.132813 348.070313 C 226.703125 348.070313 228.105469 348.40625 229.332031 349.070313 C 230.566406 349.734375 231.566406 350.597656 232.339844 351.664063 L 232.339844 338.722656 L 236.738281 338.722656 L 236.738281 374.796875 Z M 218.628906 361.753906 C 218.628906 365.105469 219.335938 367.609375 220.746094 369.261719 C 222.15625 370.917969 223.820313 371.75 225.746094 371.75 C 227.675781 371.75 229.324219 370.949219 230.675781 369.371094 C 232.027344 367.792969 232.707031 365.375 232.707031 362.121094 C 232.707031 358.542969 232.019531 355.925781 230.640625 354.253906 C 229.265625 352.574219 227.566406 351.742188 225.542969 351.742188 C 223.578125 351.742188 221.929688 352.546875 220.613281 354.152344 C 219.292969 355.753906 218.628906 358.292969 218.628906 361.753906 Z M 260.761719 371.574219 C 259.117188 372.96875 257.539063 373.949219 256.027344 374.53125 C 254.503906 375.101563 252.875 375.386719 251.136719 375.386719 C 248.265625 375.386719 246.0625 374.6875 244.519531 373.285156 C 242.980469 371.882813 242.207031 370.085938 242.207031 367.910156 C 242.207031 366.625 242.492188 365.457031 243.082031 364.398438 C 243.660156 363.339844 244.425781 362.492188 245.367188 361.855469 C 246.316406 361.214844 247.375 360.726563 248.558594 360.402344 C 249.421875 360.175781 250.734375 359.949219 252.488281 359.738281 C 256.066406 359.308594 258.707031 358.804688 260.394531 358.207031 C 260.410156 357.605469 260.417969 357.21875 260.417969 357.058594 C 260.417969 355.25 260 353.976563 259.160156 353.246094 C 258.03125 352.238281 256.34375 351.742188 254.121094 351.742188 C 252.035156 351.742188 250.5 352.101563 249.5 352.832031 C 248.507813 353.5625 247.777344 354.855469 247.296875 356.714844 L 242.972656 356.117188 C 243.367188 354.269531 244.015625 352.765625 244.914063 351.632813 C 245.8125 350.488281 247.121094 349.605469 248.828125 348.992188 C 250.53125 348.378906 252.507813 348.070313 254.757813 348.070313 C 256.992188 348.070313 258.796875 348.339844 260.191406 348.859375 C 261.585938 349.390625 262.609375 350.042969 263.273438 350.839844 C 263.929688 351.640625 264.382813 352.640625 264.652344 353.859375 C 264.796875 354.613281 264.871094 355.972656 264.871094 357.941406 L 264.871094 363.84375 C 264.871094 367.96875 264.964844 370.574219 265.15625 371.65625 C 265.339844 372.75 265.71875 373.796875 266.273438 374.796875 L 261.644531 374.796875 C 261.191406 373.882813 260.890625 372.808594 260.761719 371.574219 Z M 260.394531 361.675781 C 258.78125 362.339844 256.371094 362.894531 253.160156 363.359375 C 251.339844 363.617188 250.046875 363.910156 249.296875 364.238281 C 248.542969 364.566406 247.953125 365.046875 247.550781 365.683594 C 247.140625 366.3125 246.929688 367.011719 246.929688 367.785156 C 246.929688 368.96875 247.382813 369.953125 248.273438 370.742188 C 249.164063 371.523438 250.472656 371.917969 252.195313 371.917969 C 253.902344 371.917969 255.421875 371.546875 256.75 370.800781 C 258.074219 370.050781 259.058594 369.027344 259.679688 367.734375 C 260.160156 366.734375 260.394531 365.257813 260.394531 363.308594 Z M 288.691406 374.796875 L 288.691406 371.496094 C 287.039063 374.09375 284.601563 375.386719 281.382813 375.386719 C 279.300781 375.386719 277.386719 374.816406 275.640625 373.664063 C 273.890625 372.523438 272.539063 370.917969 271.574219 368.851563 C 270.617188 366.792969 270.136719 364.433594 270.136719 361.753906 C 270.136719 359.148438 270.574219 356.78125 271.4375 354.65625 C 272.3125 352.53125 273.613281 350.902344 275.355469 349.773438 C 277.09375 348.640625 279.042969 348.070313 281.191406 348.070313 C 282.761719 348.070313 284.164063 348.40625 285.390625 349.070313 C 286.625 349.734375 287.625 350.597656 288.398438 351.664063 L 288.398438 338.722656 L 292.800781 338.722656 L 292.800781 374.796875 Z M 274.691406 361.753906 C 274.691406 365.105469 275.394531 367.609375 276.808594 369.261719 C 278.21875 370.917969 279.882813 371.75 281.804688 371.75 C 283.738281 371.75 285.382813 370.949219 286.734375 369.371094 C 288.085938 367.792969 288.769531 365.375 288.769531 362.121094 C 288.769531 358.542969 288.078125 355.925781 286.703125 354.253906 C 285.324219 352.574219 283.628906 351.742188 281.601563 351.742188 C 279.636719 351.742188 277.992188 352.546875 276.671875 354.152344 C 275.355469 355.753906 274.691406 358.292969 274.691406 361.753906 Z M 314.285156 374.796875 L 314.285156 338.722656 L 319.183594 338.722656 L 338.132813 367.042969 L 338.132813 338.722656 L 342.710938 338.722656 L 342.710938 374.796875 L 337.816406 374.796875 L 318.863281 346.449219 L 318.863281 374.796875 Z M 367.222656 371.574219 C 365.574219 372.96875 363.996094 373.949219 362.484375 374.53125 C 360.964844 375.101563 359.335938 375.386719 357.597656 375.386719 C 354.722656 375.386719 352.523438 374.6875 350.976563 373.285156 C 349.441406 371.882813 348.667969 370.085938 348.667969 367.910156 C 348.667969 366.625 348.953125 365.457031 349.539063 364.398438 C 350.121094 363.339844 350.882813 362.492188 351.824219 361.855469 C 352.773438 361.214844 353.832031 360.726563 355.015625 360.402344 C 355.882813 360.175781 357.191406 359.949219 358.949219 359.738281 C 362.527344 359.308594 365.164063 358.804688 366.851563 358.207031 C 366.871094 357.605469 366.878906 357.21875 366.878906 357.058594 C 366.878906 355.25 366.457031 353.976563 365.617188 353.246094 C 364.492188 352.238281 362.804688 351.742188 360.578125 351.742188 C 358.496094 351.742188 356.957031 352.101563 355.957031 352.832031 C 354.96875 353.5625 354.234375 354.855469 353.757813 356.714844 L 349.433594 356.117188 C 349.828125 354.269531 350.472656 352.765625 351.371094 351.632813 C 352.269531 350.488281 353.582031 349.605469 355.285156 348.992188 C 356.992188 348.378906 358.964844 348.070313 361.214844 348.070313 C 363.449219 348.070313 365.257813 348.339844 366.652344 348.859375 C 368.046875 349.390625 369.070313 350.042969 369.734375 350.839844 C 370.390625 351.640625 370.84375 352.640625 371.109375 353.859375 C 371.253906 354.613281 371.328125 355.972656 371.328125 357.941406 L 371.328125 363.84375 C 371.328125 367.96875 371.421875 370.574219 371.613281 371.65625 C 371.800781 372.75 372.179688 373.796875 372.734375 374.796875 L 368.105469 374.796875 C 367.648438 373.882813 367.347656 372.808594 367.222656 371.574219 Z M 366.851563 361.675781 C 365.238281 362.339844 362.828125 362.894531 359.621094 363.359375 C 357.796875 363.617188 356.503906 363.910156 355.757813 364.238281 C 355 364.566406 354.414063 365.046875 354.007813 365.683594 C 353.597656 366.3125 353.386719 367.011719 353.386719 367.785156 C 353.386719 368.96875 353.839844 369.953125 354.730469 370.742188 C 355.621094 371.523438 356.933594 371.917969 358.652344 371.917969 C 360.359375 371.917969 361.878906 371.546875 363.207031 370.800781 C 364.535156 370.050781 365.515625 369.027344 366.136719 367.734375 C 366.617188 366.734375 366.851563 365.257813 366.851563 363.308594 Z M 395.253906 365.222656 L 399.601563 365.792969 C 399.132813 368.792969 397.914063 371.144531 395.949219 372.839844 C 393.992188 374.539063 391.582031 375.386719 388.726563 375.386719 C 385.15625 375.386719 382.273438 374.21875 380.105469 371.882813 C 377.933594 369.546875 376.839844 366.195313 376.839844 361.828125 C 376.839844 359.007813 377.308594 356.539063 378.242188 354.421875 C 379.183594 352.304688 380.601563 350.714844 382.519531 349.65625 C 384.425781 348.597656 386.507813 348.070313 388.75 348.070313 C 391.589844 348.070313 393.917969 348.792969 395.714844 350.230469 C 397.519531 351.664063 398.679688 353.699219 399.191406 356.34375 L 394.882813 357.007813 C 394.472656 355.25 393.75 353.933594 392.707031 353.042969 C 391.664063 352.160156 390.40625 351.714844 388.925781 351.714844 C 386.691406 351.714844 384.878906 352.515625 383.484375 354.117188 C 382.089844 355.714844 381.394531 358.242188 381.394531 361.703125 C 381.394531 365.214844 382.066406 367.769531 383.417969 369.363281 C 384.761719 370.949219 386.515625 371.75 388.683594 371.75 C 390.421875 371.75 391.867188 371.210938 393.035156 370.144531 C 394.203125 369.078125 394.941406 367.441406 395.253906 365.222656 Z M 403.417969 338.722656 L 407.851563 338.722656 L 407.851563 343.820313 L 403.417969 343.820313 Z M 403.417969 348.667969 L 407.851563 348.667969 L 407.851563 374.796875 L 403.417969 374.796875 Z M 412.941406 361.726563 C 412.941406 356.890625 414.285156 353.304688 416.980469 350.976563 C 419.226563 349.042969 421.964844 348.070313 425.199219 348.070313 C 428.792969 348.070313 431.734375 349.246094 434.007813 351.605469 C 436.292969 353.957031 437.425781 357.210938 437.425781 361.359375 C 437.425781 364.726563 436.921875 367.371094 435.914063 369.296875 C 434.90625 371.226563 433.4375 372.722656 431.515625 373.789063 C 429.582031 374.855469 427.480469 375.386719 425.199219 375.386719 C 421.542969 375.386719 418.585938 374.21875 416.328125 371.867188 C 414.066406 369.523438 412.941406 366.148438 412.941406 361.726563 Z M 417.496094 361.726563 C 417.496094 365.078125 418.226563 367.582031 419.6875 369.246094 C 421.148438 370.917969 422.988281 371.75 425.199219 371.75 C 427.398438 371.75 429.230469 370.910156 430.691406 369.238281 C 432.144531 367.566406 432.875 365.011719 432.875 361.585938 C 432.875 358.351563 432.144531 355.898438 430.671875 354.234375 C 429.203125 352.574219 427.382813 351.742188 425.199219 351.742188 C 422.988281 351.742188 421.148438 352.574219 419.6875 354.226563 C 418.226563 355.882813 417.496094 358.386719 417.496094 361.726563 Z M 442.628906 374.796875 L 442.628906 348.667969 L 446.609375 348.667969 L 446.609375 352.378906 C 448.53125 349.507813 451.304688 348.070313 454.925781 348.070313 C 456.503906 348.070313 457.949219 348.355469 459.265625 348.917969 C 460.59375 349.488281 461.578125 350.230469 462.230469 351.152344 C 462.894531 352.066406 463.347656 353.160156 463.617188 354.421875 C 463.777344 355.242188 463.863281 356.679688 463.863281 358.730469 L 463.863281 374.796875 L 459.425781 374.796875 L 459.425781 358.898438 C 459.425781 357.101563 459.257813 355.746094 458.914063 354.847656 C 458.570313 353.957031 457.957031 353.246094 457.082031 352.714844 C 456.199219 352.175781 455.175781 351.910156 453.992188 351.910156 C 452.101563 351.910156 450.480469 352.515625 449.101563 353.707031 C 447.734375 354.90625 447.054688 357.175781 447.054688 360.527344 L 447.054688 374.796875 Z M 487.707031 371.574219 C 486.0625 372.96875 484.484375 373.949219 482.972656 374.53125 C 481.449219 375.101563 479.820313 375.386719 478.082031 375.386719 C 475.210938 375.386719 473.007813 374.6875 471.464844 373.285156 C 469.925781 371.882813 469.152344 370.085938 469.152344 367.910156 C 469.152344 366.625 469.4375 365.457031 470.027344 364.398438 C 470.605469 363.339844 471.371094 362.492188 472.3125 361.855469 C 473.261719 361.214844 474.320313 360.726563 475.503906 360.402344 C 476.367188 360.175781 477.679688 359.949219 479.433594 359.738281 C 483.011719 359.308594 485.648438 358.804688 487.339844 358.207031 C 487.355469 357.605469 487.363281 357.21875 487.363281 357.058594 C 487.363281 355.25 486.945313 353.976563 486.105469 353.246094 C 484.976563 352.238281 483.289063 351.742188 481.066406 351.742188 C 478.980469 351.742188 477.445313 352.101563 476.445313 352.832031 C 475.453125 353.5625 474.722656 354.855469 474.242188 356.714844 L 469.917969 356.117188 C 470.3125 354.269531 470.960938 352.765625 471.859375 351.632813 C 472.757813 350.488281 474.066406 349.605469 475.773438 348.992188 C 477.476563 348.378906 479.453125 348.070313 481.703125 348.070313 C 483.9375 348.070313 485.742188 348.339844 487.136719 348.859375 C 488.53125 349.390625 489.554688 350.042969 490.21875 350.839844 C 490.875 351.640625 491.328125 352.640625 491.597656 353.859375 C 491.742188 354.613281 491.816406 355.972656 491.816406 357.941406 L 491.816406 363.84375 C 491.816406 367.96875 491.910156 370.574219 492.101563 371.65625 C 492.285156 372.75 492.664063 373.796875 493.21875 374.796875 L 488.589844 374.796875 C 488.136719 373.882813 487.835938 372.808594 487.707031 371.574219 Z M 487.339844 361.675781 C 485.726563 362.339844 483.316406 362.894531 480.105469 363.359375 C 478.285156 363.617188 476.988281 363.910156 476.242188 364.238281 C 475.488281 364.566406 474.898438 365.046875 474.496094 365.683594 C 474.085938 366.3125 473.875 367.011719 473.875 367.785156 C 473.875 368.96875 474.328125 369.953125 475.21875 370.742188 C 476.109375 371.523438 477.417969 371.917969 479.140625 371.917969 C 480.847656 371.917969 482.367188 371.546875 483.695313 370.800781 C 485.019531 370.050781 486.003906 369.027344 486.625 367.734375 C 487.105469 366.734375 487.339844 365.257813 487.339844 363.308594 Z M 498.585938 338.722656 L 503.011719 338.722656 L 503.011719 374.796875 L 498.585938 374.796875 Z M 498.585938 338.722656 " />
	<path style=" stroke:none;fill-rule:evenodd;fill:rgb(93.75%,52.929688%,13.330078%);fill-opacity:1;"
		d="M 32.027344 433.082031 L 46.1875 396.226563 L 51.4375 396.226563 L 66.523438 433.082031 L 60.964844 433.082031 L 56.664063 421.917969 L 41.25 421.917969 L 37.210938 433.082031 Z M 42.660156 417.945313 L 55.160156 417.945313 L 51.308594 407.742188 C 50.140625 404.644531 49.265625 402.09375 48.699219 400.09375 C 48.226563 402.464844 47.566406 404.804688 46.710938 407.140625 Z M 74.015625 433.082031 L 69.820313 433.082031 L 69.820313 396.226563 L 74.339844 396.226563 L 74.339844 409.371094 C 76.253906 406.976563 78.691406 405.777344 81.652344 405.777344 C 83.300781 405.777344 84.855469 406.109375 86.320313 406.769531 C 87.789063 407.433594 88.988281 408.367188 89.941406 409.5625 C 90.886719 410.761719 91.632813 412.203125 92.164063 413.902344 C 92.707031 415.59375 92.972656 417.402344 92.972656 419.328125 C 92.972656 423.910156 91.839844 427.445313 89.574219 429.941406 C 87.316406 432.4375 84.597656 433.683594 81.429688 433.683594 C 78.28125 433.683594 75.808594 432.371094 74.015625 429.734375 Z M 73.964844 419.53125 C 73.964844 422.734375 74.402344 425.042969 75.269531 426.464844 C 76.691406 428.800781 78.625 429.96875 81.050781 429.96875 C 83.035156 429.96875 84.742188 429.109375 86.183594 427.382813 C 87.625 425.667969 88.347656 423.109375 88.347656 419.703125 C 88.347656 416.21875 87.652344 413.644531 86.269531 411.988281 C 84.886719 410.332031 83.214844 409.5 81.257813 409.5 C 79.277344 409.5 77.566406 410.359375 76.125 412.074219 C 74.683594 413.792969 73.964844 416.28125 73.964844 419.53125 Z M 98.496094 396.226563 L 103.027344 396.226563 L 103.027344 401.433594 L 98.496094 401.433594 Z M 98.496094 406.386719 L 103.027344 406.386719 L 103.027344 433.082031 L 98.496094 433.082031 Z M 128.191406 424.484375 L 132.867188 425.058594 C 132.128906 427.796875 130.765625 429.914063 128.773438 431.425781 C 126.773438 432.929688 124.226563 433.683594 121.128906 433.683594 C 117.222656 433.683594 114.125 432.480469 111.84375 430.078125 C 109.550781 427.675781 108.410156 424.304688 108.410156 419.960938 C 108.410156 415.464844 109.566406 411.980469 111.875 409.5 C 114.195313 407.019531 117.1875 405.777344 120.878906 405.777344 C 124.449219 405.777344 127.367188 406.996094 129.621094 409.421875 C 131.886719 411.851563 133.019531 415.277344 133.019531 419.679688 C 133.019531 419.953125 133.011719 420.355469 132.996094 420.886719 L 113.085938 420.886719 C 113.25 423.824219 114.082031 426.070313 115.574219 427.625 C 117.066406 429.1875 118.921875 429.96875 121.152344 429.96875 C 122.808594 429.96875 124.226563 429.53125 125.402344 428.652344 C 126.578125 427.789063 127.503906 426.398438 128.191406 424.484375 Z M 113.335938 417.164063 L 128.242188 417.164063 C 128.042969 414.921875 127.46875 413.234375 126.535156 412.117188 C 125.09375 410.375 123.222656 409.5 120.929688 409.5 C 118.851563 409.5 117.101563 410.195313 115.6875 411.585938 C 114.269531 412.976563 113.488281 414.839844 113.335938 417.164063 Z M 138.503906 433.082031 L 138.503906 406.386719 L 142.570313 406.386719 L 142.570313 410.425781 C 143.609375 408.539063 144.570313 407.285156 145.457031 406.6875 C 146.332031 406.085938 147.300781 405.777344 148.355469 405.777344 C 149.882813 405.777344 151.429688 406.265625 153.007813 407.234375 L 151.445313 411.441406 C 150.347656 410.78125 149.238281 410.453125 148.132813 410.453125 C 147.136719 410.453125 146.253906 410.753906 145.464844 411.34375 C 144.675781 411.945313 144.117188 412.769531 143.78125 413.824219 C 143.277344 415.429688 143.027344 417.191406 143.027344 419.101563 L 143.027344 433.082031 Z M 165.578125 429.03125 L 166.230469 433.03125 C 164.960938 433.296875 163.820313 433.433594 162.816406 433.433594 C 161.167969 433.433594 159.898438 433.175781 158.988281 432.652344 C 158.085938 432.136719 157.453125 431.453125 157.082031 430.601563 C 156.714844 429.761719 156.527344 427.976563 156.527344 425.265625 L 156.527344 409.902344 L 153.203125 409.902344 L 153.203125 406.386719 L 156.527344 406.386719 L 156.527344 399.769531 L 161.03125 397.058594 L 161.03125 406.386719 L 165.578125 406.386719 L 165.578125 409.902344 L 161.03125 409.902344 L 161.03125 425.511719 C 161.03125 426.808594 161.109375 427.632813 161.261719 428.003906 C 161.425781 428.371094 161.683594 428.664063 162.042969 428.886719 C 162.402344 429.101563 162.917969 429.210938 163.589844 429.210938 C 164.09375 429.210938 164.753906 429.152344 165.578125 429.03125 Z M 187.425781 429.785156 C 185.746094 431.210938 184.132813 432.214844 182.585938 432.808594 C 181.035156 433.390625 179.367188 433.683594 177.59375 433.683594 C 174.65625 433.683594 172.410156 432.972656 170.832031 431.539063 C 169.261719 430.105469 168.46875 428.269531 168.46875 426.046875 C 168.46875 424.734375 168.761719 423.539063 169.363281 422.457031 C 169.957031 421.375 170.738281 420.511719 171.699219 419.859375 C 172.667969 419.207031 173.75 418.707031 174.957031 418.375 C 175.84375 418.140625 177.179688 417.910156 178.972656 417.695313 C 182.628906 417.257813 185.324219 416.742188 187.050781 416.132813 C 187.066406 415.515625 187.074219 415.121094 187.074219 414.957031 C 187.074219 413.113281 186.644531 411.808594 185.789063 411.0625 C 184.636719 410.03125 182.914063 409.527344 180.640625 409.527344 C 178.511719 409.527344 176.941406 409.894531 175.917969 410.640625 C 174.90625 411.390625 174.160156 412.710938 173.671875 414.605469 L 169.25 413.996094 C 169.65625 412.109375 170.316406 410.574219 171.234375 409.414063 C 172.152344 408.246094 173.492188 407.347656 175.234375 406.71875 C 176.976563 406.09375 178.992188 405.777344 181.292969 405.777344 C 183.574219 405.777344 185.417969 406.050781 186.84375 406.582031 C 188.269531 407.125 189.316406 407.792969 189.992188 408.609375 C 190.664063 409.421875 191.125 410.445313 191.402344 411.6875 C 191.546875 412.460938 191.625 413.851563 191.625 415.859375 L 191.625 421.890625 C 191.625 426.105469 191.71875 428.765625 191.914063 429.871094 C 192.105469 430.988281 192.488281 432.0625 193.054688 433.082031 L 188.328125 433.082031 C 187.863281 432.148438 187.554688 431.046875 187.425781 429.785156 Z M 187.050781 419.679688 C 185.402344 420.355469 182.9375 420.921875 179.660156 421.394531 C 177.800781 421.660156 176.476563 421.960938 175.714844 422.296875 C 174.941406 422.628906 174.339844 423.117188 173.929688 423.773438 C 173.507813 424.414063 173.292969 425.128906 173.292969 425.917969 C 173.292969 427.125 173.757813 428.128906 174.667969 428.9375 C 175.578125 429.734375 176.914063 430.140625 178.675781 430.140625 C 180.417969 430.140625 181.96875 429.761719 183.324219 428.996094 C 184.679688 428.234375 185.683594 427.1875 186.320313 425.867188 C 186.808594 424.84375 187.050781 423.332031 187.050781 421.34375 Z M 212.742188 443.363281 L 212.234375 439.113281 C 213.230469 439.382813 214.089844 439.519531 214.828125 439.519531 C 215.832031 439.519531 216.636719 439.347656 217.238281 439.011719 C 217.847656 438.675781 218.335938 438.214844 218.722656 437.605469 C 219.015625 437.160156 219.46875 436.035156 220.105469 434.242188 C 220.191406 433.984375 220.328125 433.621094 220.507813 433.132813 L 210.382813 406.386719 L 215.257813 406.386719 L 220.816406 421.839844 C 221.53125 423.804688 222.183594 425.867188 222.75 428.027344 C 223.273438 425.949219 223.890625 423.925781 224.609375 421.945313 L 230.316406 406.386719 L 234.839844 406.386719 L 224.6875 433.539063 C 223.597656 436.472656 222.75 438.488281 222.148438 439.59375 C 221.339844 441.089844 220.421875 442.179688 219.382813 442.875 C 218.335938 443.570313 217.101563 443.921875 215.660156 443.921875 C 214.785156 443.921875 213.816406 443.730469 212.742188 443.363281 Z M 270.417969 429.785156 C 268.734375 431.210938 267.121094 432.214844 265.578125 432.808594 C 264.023438 433.390625 262.359375 433.683594 260.585938 433.683594 C 257.648438 433.683594 255.402344 432.972656 253.820313 431.539063 C 252.25 430.105469 251.460938 428.269531 251.460938 426.046875 C 251.460938 424.734375 251.753906 423.539063 252.355469 422.457031 C 252.945313 421.375 253.726563 420.511719 254.6875 419.859375 C 255.65625 419.207031 256.738281 418.707031 257.949219 418.375 C 258.832031 418.140625 260.171875 417.910156 261.964844 417.695313 C 265.621094 417.257813 268.316406 416.742188 270.039063 416.132813 C 270.058594 415.515625 270.066406 415.121094 270.066406 414.957031 C 270.066406 413.113281 269.636719 411.808594 268.777344 411.0625 C 267.628906 410.03125 265.90625 409.527344 263.628906 409.527344 C 261.5 409.527344 259.929688 409.894531 258.910156 410.640625 C 257.898438 411.390625 257.152344 412.710938 256.664063 414.605469 L 252.242188 413.996094 C 252.644531 412.109375 253.308594 410.574219 254.226563 409.414063 C 255.144531 408.246094 256.480469 407.347656 258.222656 406.71875 C 259.964844 406.09375 261.984375 405.777344 264.28125 405.777344 C 266.566406 405.777344 268.410156 406.050781 269.835938 406.582031 C 271.257813 407.125 272.304688 407.792969 272.984375 408.609375 C 273.652344 409.421875 274.117188 410.445313 274.390625 411.6875 C 274.535156 412.460938 274.613281 413.851563 274.613281 415.859375 L 274.613281 421.890625 C 274.613281 426.105469 274.710938 428.765625 274.90625 429.871094 C 275.09375 430.988281 275.480469 432.0625 276.046875 433.082031 L 271.320313 433.082031 C 270.855469 432.148438 270.546875 431.046875 270.417969 429.785156 Z M 270.039063 419.679688 C 268.394531 420.355469 265.929688 420.921875 262.652344 421.394531 C 260.789063 421.660156 259.46875 421.960938 258.703125 422.296875 C 257.933594 422.628906 257.332031 423.117188 256.917969 423.773438 C 256.5 424.414063 256.285156 425.128906 256.285156 425.917969 C 256.285156 427.125 256.75 428.128906 257.65625 428.9375 C 258.566406 429.734375 259.90625 430.140625 261.664063 430.140625 C 263.40625 430.140625 264.960938 429.761719 266.316406 428.996094 C 267.671875 428.234375 268.675781 427.1875 269.3125 425.867188 C 269.800781 424.84375 270.039063 423.332031 270.039063 421.34375 Z M 296.515625 433.082031 L 296.515625 396.226563 L 309.207031 396.226563 C 312.074219 396.226563 314.261719 396.40625 315.769531 396.757813 C 317.882813 397.238281 319.683594 398.121094 321.175781 399.390625 C 323.117188 401.039063 324.574219 403.132813 325.535156 405.691406 C 326.507813 408.246094 326.988281 411.164063 326.988281 414.453125 C 326.988281 417.25 326.660156 419.730469 326 421.890625 C 325.347656 424.054688 324.515625 425.847656 323.484375 427.265625 C 322.464844 428.679688 321.347656 429.796875 320.128906 430.601563 C 318.921875 431.417969 317.453125 432.035156 315.738281 432.457031 C 314.011719 432.875 312.039063 433.082031 309.816406 433.082031 Z M 301.386719 428.730469 L 309.257813 428.730469 C 311.6875 428.730469 313.601563 428.507813 314.980469 428.054688 C 316.363281 427.597656 317.460938 426.964844 318.285156 426.140625 C 319.445313 424.988281 320.34375 423.429688 320.988281 421.480469 C 321.632813 419.523438 321.957031 417.164063 321.957031 414.375 C 321.957031 410.523438 321.324219 407.5625 320.0625 405.492188 C 318.792969 403.417969 317.253906 402.035156 315.445313 401.332031 C 314.140625 400.824219 312.027344 400.574219 309.136719 400.574219 L 301.386719 400.574219 Z M 333.140625 396.226563 L 337.671875 396.226563 L 337.671875 401.433594 L 333.140625 401.433594 Z M 333.140625 406.386719 L 337.671875 406.386719 L 337.671875 433.082031 L 333.140625 433.082031 Z M 342.75 425.109375 L 347.222656 424.40625 C 347.46875 426.199219 348.175781 427.574219 349.324219 428.535156 C 350.464844 429.488281 352.070313 429.96875 354.136719 429.96875 C 356.214844 429.96875 357.757813 429.539063 358.765625 428.695313 C 359.769531 427.847656 360.273438 426.851563 360.273438 425.71875 C 360.273438 424.691406 359.828125 423.890625 358.933594 423.300781 C 358.316406 422.894531 356.773438 422.390625 354.308594 421.773438 C 350.996094 420.929688 348.6875 420.210938 347.410156 419.59375 C 346.132813 418.984375 345.152344 418.132813 344.492188 417.050781 C 343.832031 415.972656 343.496094 414.777344 343.496094 413.472656 C 343.496094 412.28125 343.773438 411.183594 344.320313 410.171875 C 344.863281 409.148438 345.609375 408.308594 346.542969 407.636719 C 347.246094 407.125 348.207031 406.675781 349.417969 406.316406 C 350.636719 405.957031 351.941406 405.777344 353.332031 405.777344 C 355.425781 405.777344 357.261719 406.085938 358.847656 406.6875 C 360.4375 407.285156 361.605469 408.101563 362.359375 409.132813 C 363.113281 410.171875 363.628906 411.542969 363.914063 413.269531 L 359.492188 413.878906 C 359.289063 412.503906 358.703125 411.429688 357.742188 410.660156 C 356.78125 409.886719 355.417969 409.5 353.65625 409.5 C 351.582031 409.5 350.097656 409.84375 349.210938 410.53125 C 348.320313 411.214844 347.875 412.023438 347.875 412.941406 C 347.875 413.535156 348.0625 414.058594 348.429688 414.527344 C 348.800781 415.019531 349.375 415.414063 350.164063 415.738281 C 350.621094 415.902344 351.949219 416.289063 354.164063 416.890625 C 357.363281 417.746094 359.597656 418.441406 360.859375 418.992188 C 362.128906 419.53125 363.125 420.332031 363.84375 421.367188 C 364.566406 422.40625 364.925781 423.695313 364.925781 425.238281 C 364.925781 426.75 364.480469 428.164063 363.605469 429.503906 C 362.71875 430.835938 361.449219 431.863281 359.792969 432.59375 C 358.136719 433.324219 356.257813 433.683594 354.164063 433.683594 C 350.6875 433.683594 348.046875 432.960938 346.226563 431.519531 C 344.40625 430.078125 343.25 427.941406 342.75 425.109375 Z M 380.183594 429.03125 L 380.835938 433.03125 C 379.566406 433.296875 378.421875 433.433594 377.417969 433.433594 C 375.773438 433.433594 374.503906 433.175781 373.59375 432.652344 C 372.691406 432.136719 372.054688 431.453125 371.6875 430.601563 C 371.316406 429.761719 371.128906 427.976563 371.128906 425.265625 L 371.128906 409.902344 L 367.808594 409.902344 L 367.808594 406.386719 L 371.128906 406.386719 L 371.128906 399.769531 L 375.632813 397.058594 L 375.632813 406.386719 L 380.183594 406.386719 L 380.183594 409.902344 L 375.632813 409.902344 L 375.632813 425.511719 C 375.632813 426.808594 375.710938 427.632813 375.867188 428.003906 C 376.03125 428.371094 376.285156 428.664063 376.648438 428.886719 C 377.007813 429.101563 377.523438 429.210938 378.191406 429.210938 C 378.699219 429.210938 379.359375 429.152344 380.183594 429.03125 Z M 402.03125 429.785156 C 400.347656 431.210938 398.734375 432.214844 397.191406 432.808594 C 395.636719 433.390625 393.972656 433.683594 392.195313 433.683594 C 389.261719 433.683594 387.015625 432.972656 385.433594 431.539063 C 383.863281 430.105469 383.074219 428.269531 383.074219 426.046875 C 383.074219 424.734375 383.367188 423.539063 383.96875 422.457031 C 384.558594 421.375 385.339844 420.511719 386.300781 419.859375 C 387.269531 419.207031 388.351563 418.707031 389.5625 418.375 C 390.445313 418.140625 391.785156 417.910156 393.578125 417.695313 C 397.234375 417.257813 399.929688 416.742188 401.652344 416.132813 C 401.671875 415.515625 401.679688 415.121094 401.679688 414.957031 C 401.679688 413.113281 401.25 411.808594 400.390625 411.0625 C 399.242188 410.03125 397.515625 409.527344 395.242188 409.527344 C 393.113281 409.527344 391.542969 409.894531 390.523438 410.640625 C 389.511719 411.390625 388.765625 412.710938 388.273438 414.605469 L 383.855469 413.996094 C 384.257813 412.109375 384.917969 410.574219 385.839844 409.414063 C 386.757813 408.246094 388.09375 407.347656 389.835938 406.71875 C 391.578125 406.09375 393.59375 405.777344 395.894531 405.777344 C 398.179688 405.777344 400.023438 406.050781 401.449219 406.582031 C 402.871094 407.125 403.917969 407.792969 404.597656 408.609375 C 405.265625 409.421875 405.730469 410.445313 406.003906 411.6875 C 406.148438 412.460938 406.226563 413.851563 406.226563 415.859375 L 406.226563 421.890625 C 406.226563 426.105469 406.320313 428.765625 406.519531 429.871094 C 406.707031 430.988281 407.09375 432.0625 407.660156 433.082031 L 402.933594 433.082031 C 402.46875 432.148438 402.160156 431.046875 402.03125 429.785156 Z M 401.652344 419.679688 C 400.007813 420.355469 397.542969 420.921875 394.265625 421.394531 C 392.402344 421.660156 391.082031 421.960938 390.316406 422.296875 C 389.546875 422.628906 388.945313 423.117188 388.53125 423.773438 C 388.113281 424.414063 387.898438 425.128906 387.898438 425.917969 C 387.898438 427.125 388.359375 428.128906 389.269531 428.9375 C 390.179688 429.734375 391.519531 430.140625 393.277344 430.140625 C 395.019531 430.140625 396.574219 429.761719 397.929688 428.996094 C 399.285156 428.234375 400.289063 427.1875 400.925781 425.867188 C 401.414063 424.84375 401.652344 423.332031 401.652344 421.34375 Z M 413.246094 433.082031 L 413.246094 406.386719 L 417.316406 406.386719 L 417.316406 410.179688 C 419.28125 407.242188 422.113281 405.777344 425.808594 405.777344 C 427.421875 405.777344 428.898438 406.066406 430.246094 406.644531 C 431.601563 407.226563 432.605469 407.980469 433.277344 408.925781 C 433.953125 409.859375 434.417969 410.976563 434.691406 412.265625 C 434.855469 413.105469 434.941406 414.570313 434.941406 416.664063 L 434.941406 433.082031 L 430.410156 433.082031 L 430.410156 416.839844 C 430.410156 415 430.238281 413.621094 429.886719 412.703125 C 429.535156 411.792969 428.90625 411.0625 428.015625 410.523438 C 427.113281 409.972656 426.066406 409.699219 424.859375 409.699219 C 422.925781 409.699219 421.269531 410.316406 419.863281 411.535156 C 418.464844 412.761719 417.769531 415.078125 417.769531 418.503906 L 417.769531 433.082031 Z M 459.304688 423.300781 L 463.75 423.882813 C 463.269531 426.945313 462.023438 429.347656 460.015625 431.082031 C 458.015625 432.816406 455.554688 433.683594 452.636719 433.683594 C 448.988281 433.683594 446.046875 432.488281 443.832031 430.105469 C 441.609375 427.71875 440.492188 424.292969 440.492188 419.832031 C 440.492188 416.949219 440.972656 414.425781 441.925781 412.265625 C 442.886719 410.101563 444.335938 408.480469 446.292969 407.398438 C 448.242188 406.316406 450.371094 405.777344 452.660156 405.777344 C 455.5625 405.777344 457.9375 406.515625 459.777344 407.980469 C 461.621094 409.449219 462.804688 411.527344 463.328125 414.230469 L 458.925781 414.90625 C 458.503906 413.113281 457.765625 411.765625 456.703125 410.855469 C 455.640625 409.957031 454.351563 409.5 452.84375 409.5 C 450.558594 409.5 448.707031 410.316406 447.28125 411.953125 C 445.855469 413.585938 445.144531 416.167969 445.144531 419.703125 C 445.144531 423.292969 445.832031 425.898438 447.210938 427.53125 C 448.585938 429.152344 450.378906 429.96875 452.59375 429.96875 C 454.367188 429.96875 455.84375 429.417969 457.039063 428.328125 C 458.230469 427.238281 458.984375 425.566406 459.304688 423.300781 Z M 467.644531 396.226563 L 472.175781 396.226563 L 472.175781 401.433594 L 467.644531 401.433594 Z M 467.644531 406.386719 L 472.175781 406.386719 L 472.175781 433.082031 L 467.644531 433.082031 Z M 496.488281 429.785156 C 494.804688 431.210938 493.191406 432.214844 491.648438 432.808594 C 490.09375 433.390625 488.429688 433.683594 486.652344 433.683594 C 483.71875 433.683594 481.46875 432.972656 479.890625 431.539063 C 478.320313 430.105469 477.53125 428.269531 477.53125 426.046875 C 477.53125 424.734375 477.820313 423.539063 478.421875 422.457031 C 479.015625 421.375 479.796875 420.511719 480.757813 419.859375 C 481.726563 419.207031 482.808594 418.707031 484.019531 418.375 C 484.902344 418.140625 486.238281 417.910156 488.035156 417.695313 C 491.6875 417.257813 494.382813 416.742188 496.109375 416.132813 C 496.125 415.515625 496.132813 415.121094 496.132813 414.957031 C 496.132813 413.113281 495.707031 411.808594 494.847656 411.0625 C 493.699219 410.03125 491.972656 409.527344 489.699219 409.527344 C 487.570313 409.527344 486 409.894531 484.980469 410.640625 C 483.964844 411.390625 483.21875 412.710938 482.730469 414.605469 L 478.3125 413.996094 C 478.714844 412.109375 479.375 410.574219 480.292969 409.414063 C 481.210938 408.246094 482.550781 407.347656 484.292969 406.71875 C 486.035156 406.09375 488.050781 405.777344 490.351563 405.777344 C 492.632813 405.777344 494.480469 406.050781 495.902344 406.582031 C 497.328125 407.125 498.375 407.792969 499.050781 408.609375 C 499.722656 409.421875 500.183594 410.445313 500.460938 411.6875 C 500.605469 412.460938 500.683594 413.851563 500.683594 415.859375 L 500.683594 421.890625 C 500.683594 426.105469 500.777344 428.765625 500.972656 429.871094 C 501.164063 430.988281 501.550781 432.0625 502.117188 433.082031 L 497.386719 433.082031 C 496.925781 432.148438 496.613281 431.046875 496.488281 429.785156 Z M 496.109375 419.679688 C 494.460938 420.355469 492 420.921875 488.71875 421.394531 C 486.859375 421.660156 485.535156 421.960938 484.773438 422.296875 C 484 422.628906 483.398438 423.117188 482.988281 423.773438 C 482.566406 424.414063 482.351563 425.128906 482.351563 425.917969 C 482.351563 427.125 482.816406 428.128906 483.726563 428.9375 C 484.636719 429.734375 485.972656 430.140625 487.734375 430.140625 C 489.476563 430.140625 491.027344 429.761719 492.382813 428.996094 C 493.742188 428.234375 494.746094 427.1875 495.378906 425.867188 C 495.867188 424.84375 496.109375 423.332031 496.109375 421.34375 Z M 496.109375 419.679688 " />
</g>
</svg>
